<?xml version="1.0" standalone="no"?>
<!DOCTYPE svg PUBLIC "-//W3C//DTD SVG 20010904//EN"
 "http://www.w3.org/TR/2001/REC-SVG-20010904/DTD/svg10.dtd">
<svg version="1.0" xmlns="http://www.w3.org/2000/svg"
 width="284.000000pt" height="284.000000pt" viewBox="0 0 284.000000 284.000000"
 preserveAspectRatio="xMidYMid meet">
<metadata>
Created by potrace 1.14, written by Peter Selinger 2001-2017
</metadata>
<g transform="translate(0.000000,284.000000) scale(0.100000,-0.100000)"
fill="#000000" stroke="none">
<path d="M1513 2606 c0 -8 -7 -29 -16 -47 -8 -19 -68 -160 -132 -314 -121
-290 -166 -398 -191 -452 -8 -17 -14 -34 -14 -38 0 -5 -19 -52 -50 -120 -5
-11 -45 -108 -90 -215 -44 -107 -87 -207 -96 -222 -8 -16 -13 -28 -10 -28 2 0
-18 -50 -45 -110 l-48 -111 37 5 c35 5 269 49 322 61 14 3 49 10 79 15 29 5
55 11 57 13 2 2 39 82 82 178 97 213 120 265 137 304 8 17 32 70 55 119 l40
89 28 -33 c47 -57 253 -303 297 -355 24 -27 98 -115 165 -195 67 -80 132 -156
144 -170 11 -14 55 -65 96 -115 41 -49 80 -96 87 -103 7 -7 29 -34 50 -60 21
-26 43 -52 48 -58 6 -6 29 -33 52 -60 23 -27 51 -60 63 -74 12 -14 36 -42 53
-64 18 -21 37 -43 42 -50 6 -6 22 -26 38 -44 35 -44 34 -35 -4 30 -18 29 -46
78 -62 108 -17 30 -86 153 -154 274 -69 120 -135 237 -147 260 -24 44 -273
485 -442 784 -58 100 -117 206 -132 235 -15 28 -30 54 -33 57 -3 3 -21 34 -41
70 -40 74 -58 106 -155 275 -37 67 -74 133 -82 148 -16 29 -28 35 -28 13z"/>
<path d="M1309 2454 c-24 -41 -55 -94 -68 -117 -13 -23 -27 -44 -30 -47 -3 -3
-14 -18 -23 -35 -10 -16 -53 -88 -95 -158 -43 -70 -87 -143 -98 -161 -66 -112
-171 -282 -175 -286 -3 -3 -11 -16 -18 -30 -6 -14 -37 -65 -68 -115 -31 -49
-64 -103 -74 -120 -10 -16 -55 -91 -100 -165 -46 -74 -88 -145 -94 -157 -6
-13 -14 -23 -18 -23 -5 0 -8 -4 -8 -9 0 -6 -24 -50 -54 -98 -30 -48 -89 -146
-132 -218 -43 -71 -82 -131 -86 -133 -5 -2 -8 -8 -8 -14 0 -5 -20 -41 -45 -79
-25 -38 -45 -72 -45 -75 0 -4 -14 -26 -30 -51 -17 -25 -29 -47 -27 -49 2 -2
57 5 123 15 65 11 135 22 154 25 19 3 44 7 55 10 11 2 42 7 68 10 27 4 57 9
67 11 20 4 66 11 125 20 22 4 90 15 150 25 61 11 128 22 150 25 23 3 50 7 62
9 11 3 38 7 59 10 22 3 50 8 64 11 29 5 95 15 130 20 14 2 40 6 58 9 17 3 47
8 65 11 63 9 102 15 137 21 55 10 59 11 175 29 61 10 112 19 114 21 2 2 -23
36 -55 76 -32 40 -64 80 -71 88 -65 81 -164 200 -167 200 -2 0 -28 -5 -57 -11
-30 -5 -67 -12 -82 -14 -15 -2 -47 -7 -70 -10 -23 -3 -67 -10 -97 -15 -66 -11
-78 -13 -250 -40 -154 -24 -176 -28 -208 -34 -16 -4 -22 -1 -19 7 3 7 57 145
121 307 64 162 120 303 126 312 5 10 10 23 10 28 0 6 8 30 19 53 10 23 30 74
45 112 15 39 31 79 36 90 5 11 26 63 46 115 20 52 42 109 49 125 8 17 30 73
50 125 20 52 40 104 45 115 23 50 119 300 116 302 -1 2 -22 -31 -47 -73z"/>
<path d="M1647 1499 c-10 -13 -17 -26 -17 -30 0 -6 -136 -293 -161 -341 -6
-11 -5 -21 4 -30 32 -32 458 -570 455 -574 -3 -3 -60 -12 -248 -39 -39 -6 -80
-12 -125 -20 -26 -4 -110 -17 -195 -30 -41 -6 -303 -46 -332 -51 -16 -2 -40
-6 -55 -9 -16 -2 -46 -7 -68 -9 -22 -3 -51 -8 -64 -11 -14 -2 -61 -10 -105
-16 -45 -6 -90 -13 -101 -14 -63 -10 -103 -16 -125 -20 -14 -3 -43 -7 -65 -11
-22 -3 -51 -7 -65 -9 -89 -15 -107 -18 -120 -20 -8 -2 -30 -4 -47 -4 -18 -1
-33 -6 -33 -11 0 -9 313 -15 435 -9 17 0 35 1 40 0 6 0 415 -3 910 -6 495 -3
966 -7 1048 -8 81 -1 147 0 147 3 0 3 -17 23 -38 45 -20 22 -46 52 -57 67 -21
27 -222 265 -240 284 -5 6 -28 32 -50 58 -22 27 -48 58 -58 70 -10 11 -37 43
-60 70 -23 27 -46 54 -52 60 -5 6 -32 38 -60 71 -65 78 -96 115 -115 135 -8 9
-31 36 -51 60 -20 25 -45 55 -55 67 -11 11 -33 38 -51 60 -17 21 -41 49 -53
63 -12 14 -41 47 -64 74 -22 27 -53 63 -67 79 l-26 30 -16 -24z"/>
</g>
</svg>
